<svg width="34" height="34" viewBox="0 0 34 34" fill="none" xmlns="http://www.w3.org/2000/svg">
<path d="M18.1631 12.6427C17.9521 12.7224 17.8115 12.9239 17.8115 13.1489C17.8115 13.3739 17.9521 13.5755 18.1631 13.6552L20.8115 14.6489L21.8053 17.2974C21.885 17.5083 22.0865 17.6489 22.3115 17.6489C22.5365 17.6489 22.7381 17.5083 22.8178 17.2974L23.8115 14.6489L26.46 13.6552C26.6709 13.5755 26.8115 13.3739 26.8115 13.1489C26.8115 12.9239 26.6709 12.7224 26.46 12.6427L23.8115 11.6489L22.8178 9.00049C22.7381 8.78955 22.5365 8.64893 22.3115 8.64893C22.0865 8.64893 21.885 8.78955 21.8053 9.00049L20.8115 11.6489L18.1631 12.6427ZM12.4256 12.0849C12.3037 11.8177 12.0365 11.6489 11.7459 11.6489C11.4553 11.6489 11.1881 11.8177 11.0662 12.0849L8.59121 17.4286L3.24746 19.8989C2.98027 20.0208 2.81152 20.288 2.81152 20.5833C2.81152 20.8786 2.98027 21.1411 3.24746 21.263L8.5959 23.7333L11.0615 29.0771C11.1834 29.3442 11.4506 29.513 11.7412 29.513C12.0318 29.513 12.299 29.3442 12.4209 29.0771L14.8912 23.7286L20.2396 21.2583C20.5068 21.1364 20.6756 20.8692 20.6756 20.5786C20.6756 20.288 20.5068 20.0208 20.2396 19.8989L14.8959 17.4333L12.4256 12.0849ZM20.8115 26.6489L18.1631 27.6427C17.9521 27.7224 17.8115 27.9239 17.8115 28.1489C17.8115 28.3739 17.9521 28.5755 18.1631 28.6552L20.8115 29.6489L21.8053 32.2974C21.885 32.5083 22.0865 32.6489 22.3115 32.6489C22.5365 32.6489 22.7381 32.5083 22.8178 32.2974L23.8115 29.6489L26.46 28.6552C26.6709 28.5755 26.8115 28.3739 26.8115 28.1489C26.8115 27.9239 26.6709 27.7224 26.46 27.6427L23.8115 26.6489L22.8178 24.0005C22.7381 23.7896 22.5365 23.6489 22.3115 23.6489C22.0865 23.6489 21.885 23.7896 21.8053 24.0005L20.8115 26.6489Z" fill="url(#paint0_linear_1902_1538)"/>
<g filter="url(#filter0_d_1902_1538)">
<ellipse cx="15.2712" cy="24.3615" rx="13.7318" ry="2.33654" transform="rotate(160.848 15.2712 24.3615)" stroke="url(#paint1_linear_1902_1538)" stroke-width="0.549291"/>
<g style="mix-blend-mode:screen" filter="url(#filter1_f_1902_1538)">
<ellipse cx="15.2712" cy="24.3615" rx="13.7318" ry="2.33654" transform="rotate(160.848 15.2712 24.3615)" stroke="url(#paint2_linear_1902_1538)" stroke-width="0.549291"/>
</g>
</g>
<g filter="url(#filter2_d_1902_1538)">
<circle cx="26.2248" cy="1.72207" r="0.370998" fill="url(#paint3_linear_1902_1538)"/>
</g>
<g filter="url(#filter3_d_1902_1538)">
<circle cx="33.0321" cy="8.39699" r="0.156515" fill="url(#paint4_linear_1902_1538)"/>
</g>
<g filter="url(#filter4_d_1902_1538)">
<circle cx="7.21744" cy="12.0869" r="0.406037" fill="url(#paint5_linear_1902_1538)"/>
</g>
<g filter="url(#filter5_d_1902_1538)">
<circle cx="3.03531" cy="23.98" r="0.406037" fill="url(#paint6_linear_1902_1538)"/>
</g>
<g filter="url(#filter6_d_1902_1538)">
<circle cx="27.076" cy="27.2449" r="0.406037" fill="url(#paint7_linear_1902_1538)"/>
</g>
<g filter="url(#filter7_d_1902_1538)">
<circle cx="8.06075" cy="20.6189" r="0.156515" fill="url(#paint8_linear_1902_1538)"/>
</g>
<g filter="url(#filter8_d_1902_1538)">
<circle cx="14.0574" cy="7.89463" r="0.245952" fill="url(#paint9_linear_1902_1538)"/>
</g>
<g filter="url(#filter9_d_1902_1538)">
<path d="M25.6339 13.8817C25.5224 13.8657 25.4428 13.7706 25.4439 13.6524C25.4387 12.5971 25.3184 12.4331 24.3406 12.1777C24.228 12.1473 24.1535 12.0388 24.1695 11.9274C24.1857 11.8145 24.2857 11.7341 24.4027 11.7335C25.4102 11.7374 25.5498 11.6343 25.8773 10.6282C25.9138 10.5166 26.0138 10.4473 26.1238 10.4631C26.2368 10.4793 26.3148 10.5741 26.3168 10.6928C26.3191 11.7461 26.4394 11.9101 27.4157 12.1653C27.5311 12.1976 27.6045 12.3029 27.5881 12.4173C27.5722 12.5287 27.4752 12.6095 27.3551 12.6097C26.3456 12.6087 26.2078 12.7105 25.8834 13.717C25.8436 13.8296 25.7422 13.8972 25.6339 13.8817Z" fill="url(#paint10_linear_1902_1538)"/>
</g>
<g filter="url(#filter10_d_1902_1538)">
<path d="M4.79753 19.2623C4.71678 19.2745 4.64165 19.2251 4.61775 19.1427C4.39381 18.4109 4.27603 18.3221 3.54366 18.3489C3.45914 18.3514 3.38473 18.2915 3.37256 18.2109C3.36022 18.1291 3.41289 18.0524 3.49403 18.0275C4.19453 17.8198 4.26995 17.7191 4.2873 16.9521C4.28938 16.8669 4.34435 16.7979 4.42398 16.7859C4.50585 16.7735 4.57986 16.8231 4.60599 16.9051C4.82753 17.6361 4.94531 17.7249 5.67656 17.6983C5.76349 17.6966 5.83644 17.7544 5.84895 17.8373C5.86112 17.918 5.81069 17.9944 5.72732 18.0195C5.02603 18.2296 4.95156 18.3291 4.93644 19.0958C4.9323 19.1824 4.87604 19.2504 4.79753 19.2623Z" fill="url(#paint11_linear_1902_1538)"/>
</g>
<defs>
<filter id="filter0_d_1902_1538" x="0.364743" y="17.7597" width="29.8128" height="13.8582" filterUnits="userSpaceOnUse" color-interpolation-filters="sRGB">
<feFlood flood-opacity="0" result="BackgroundImageFix"/>
<feColorMatrix in="SourceAlpha" type="matrix" values="0 0 0 0 0 0 0 0 0 0 0 0 0 0 0 0 0 0 127 0" result="hardAlpha"/>
<feOffset dy="0.327344"/>
<feGaussianBlur stdDeviation="0.818361"/>
<feComposite in2="hardAlpha" operator="out"/>
<feColorMatrix type="matrix" values="0 0 0 0 0 0 0 0 0 0 0 0 0 0 0 0 0 0 0.45 0"/>
<feBlend mode="normal" in2="BackgroundImageFix" result="effect1_dropShadow_1902_1538"/>
<feBlend mode="normal" in="SourceGraphic" in2="effect1_dropShadow_1902_1538" result="shape"/>
</filter>
<filter id="filter1_f_1902_1538" x="1.74707" y="18.8147" width="27.0481" height="11.0935" filterUnits="userSpaceOnUse" color-interpolation-filters="sRGB">
<feFlood flood-opacity="0" result="BackgroundImageFix"/>
<feBlend mode="normal" in="SourceGraphic" in2="BackgroundImageFix" result="shape"/>
<feGaussianBlur stdDeviation="0.127195" result="effect1_foregroundBlur_1902_1538"/>
</filter>
<filter id="filter2_d_1902_1538" x="25.5123" y="1.00959" width="1.42498" height="1.42492" filterUnits="userSpaceOnUse" color-interpolation-filters="sRGB">
<feFlood flood-opacity="0" result="BackgroundImageFix"/>
<feColorMatrix in="SourceAlpha" type="matrix" values="0 0 0 0 0 0 0 0 0 0 0 0 0 0 0 0 0 0 127 0" result="hardAlpha"/>
<feOffset/>
<feGaussianBlur stdDeviation="0.170743"/>
<feComposite in2="hardAlpha" operator="out"/>
<feColorMatrix type="matrix" values="0 0 0 0 0.592157 0 0 0 0 0.392157 0 0 0 0 1 0 0 0 1 0"/>
<feBlend mode="normal" in2="BackgroundImageFix" result="effect1_dropShadow_1902_1538"/>
<feBlend mode="normal" in="SourceGraphic" in2="effect1_dropShadow_1902_1538" result="shape"/>
</filter>
<filter id="filter3_d_1902_1538" x="32.5341" y="7.89899" width="0.996023" height="0.995962" filterUnits="userSpaceOnUse" color-interpolation-filters="sRGB">
<feFlood flood-opacity="0" result="BackgroundImageFix"/>
<feColorMatrix in="SourceAlpha" type="matrix" values="0 0 0 0 0 0 0 0 0 0 0 0 0 0 0 0 0 0 127 0" result="hardAlpha"/>
<feOffset/>
<feGaussianBlur stdDeviation="0.170743"/>
<feComposite in2="hardAlpha" operator="out"/>
<feColorMatrix type="matrix" values="0 0 0 0 0.592157 0 0 0 0 0.392157 0 0 0 0 1 0 0 0 1 0"/>
<feBlend mode="normal" in2="BackgroundImageFix" result="effect1_dropShadow_1902_1538"/>
<feBlend mode="normal" in="SourceGraphic" in2="effect1_dropShadow_1902_1538" result="shape"/>
</filter>
<filter id="filter4_d_1902_1538" x="5.9255" y="10.795" width="2.58387" height="2.58381" filterUnits="userSpaceOnUse" color-interpolation-filters="sRGB">
<feFlood flood-opacity="0" result="BackgroundImageFix"/>
<feColorMatrix in="SourceAlpha" type="matrix" values="0 0 0 0 0 0 0 0 0 0 0 0 0 0 0 0 0 0 127 0" result="hardAlpha"/>
<feOffset/>
<feGaussianBlur stdDeviation="0.442949"/>
<feComposite in2="hardAlpha" operator="out"/>
<feColorMatrix type="matrix" values="0 0 0 0 0.592157 0 0 0 0 0.392157 0 0 0 0 1 0 0 0 1 0"/>
<feBlend mode="normal" in2="BackgroundImageFix" result="effect1_dropShadow_1902_1538"/>
<feBlend mode="normal" in="SourceGraphic" in2="effect1_dropShadow_1902_1538" result="shape"/>
</filter>
<filter id="filter5_d_1902_1538" x="1.74337" y="22.6881" width="2.58387" height="2.58381" filterUnits="userSpaceOnUse" color-interpolation-filters="sRGB">
<feFlood flood-opacity="0" result="BackgroundImageFix"/>
<feColorMatrix in="SourceAlpha" type="matrix" values="0 0 0 0 0 0 0 0 0 0 0 0 0 0 0 0 0 0 127 0" result="hardAlpha"/>
<feOffset/>
<feGaussianBlur stdDeviation="0.442949"/>
<feComposite in2="hardAlpha" operator="out"/>
<feColorMatrix type="matrix" values="0 0 0 0 0.592157 0 0 0 0 0.392157 0 0 0 0 1 0 0 0 1 0"/>
<feBlend mode="normal" in2="BackgroundImageFix" result="effect1_dropShadow_1902_1538"/>
<feBlend mode="normal" in="SourceGraphic" in2="effect1_dropShadow_1902_1538" result="shape"/>
</filter>
<filter id="filter6_d_1902_1538" x="25.7841" y="25.953" width="2.58387" height="2.58381" filterUnits="userSpaceOnUse" color-interpolation-filters="sRGB">
<feFlood flood-opacity="0" result="BackgroundImageFix"/>
<feColorMatrix in="SourceAlpha" type="matrix" values="0 0 0 0 0 0 0 0 0 0 0 0 0 0 0 0 0 0 127 0" result="hardAlpha"/>
<feOffset/>
<feGaussianBlur stdDeviation="0.442949"/>
<feComposite in2="hardAlpha" operator="out"/>
<feColorMatrix type="matrix" values="0 0 0 0 0.592157 0 0 0 0 0.392157 0 0 0 0 1 0 0 0 1 0"/>
<feBlend mode="normal" in2="BackgroundImageFix" result="effect1_dropShadow_1902_1538"/>
<feBlend mode="normal" in="SourceGraphic" in2="effect1_dropShadow_1902_1538" result="shape"/>
</filter>
<filter id="filter7_d_1902_1538" x="7.56275" y="20.1209" width="0.996023" height="0.995962" filterUnits="userSpaceOnUse" color-interpolation-filters="sRGB">
<feFlood flood-opacity="0" result="BackgroundImageFix"/>
<feColorMatrix in="SourceAlpha" type="matrix" values="0 0 0 0 0 0 0 0 0 0 0 0 0 0 0 0 0 0 127 0" result="hardAlpha"/>
<feOffset/>
<feGaussianBlur stdDeviation="0.170743"/>
<feComposite in2="hardAlpha" operator="out"/>
<feColorMatrix type="matrix" values="0 0 0 0 0.592157 0 0 0 0 0.392157 0 0 0 0 1 0 0 0 1 0"/>
<feBlend mode="normal" in2="BackgroundImageFix" result="effect1_dropShadow_1902_1538"/>
<feBlend mode="normal" in="SourceGraphic" in2="effect1_dropShadow_1902_1538" result="shape"/>
</filter>
<filter id="filter8_d_1902_1538" x="13.2748" y="7.11206" width="1.56513" height="1.56519" filterUnits="userSpaceOnUse" color-interpolation-filters="sRGB">
<feFlood flood-opacity="0" result="BackgroundImageFix"/>
<feColorMatrix in="SourceAlpha" type="matrix" values="0 0 0 0 0 0 0 0 0 0 0 0 0 0 0 0 0 0 127 0" result="hardAlpha"/>
<feOffset/>
<feGaussianBlur stdDeviation="0.268311"/>
<feComposite in2="hardAlpha" operator="out"/>
<feColorMatrix type="matrix" values="0 0 0 0 0.592157 0 0 0 0 0.392157 0 0 0 0 1 0 0 0 1 0"/>
<feBlend mode="normal" in2="BackgroundImageFix" result="effect1_dropShadow_1902_1538"/>
<feBlend mode="normal" in="SourceGraphic" in2="effect1_dropShadow_1902_1538" result="shape"/>
</filter>
<filter id="filter9_d_1902_1538" x="22.0369" y="8.88515" width="7.68396" height="7.68378" filterUnits="userSpaceOnUse" color-interpolation-filters="sRGB">
<feFlood flood-opacity="0" result="BackgroundImageFix"/>
<feColorMatrix in="SourceAlpha" type="matrix" values="0 0 0 0 0 0 0 0 0 0 0 0 0 0 0 0 0 0 127 0" result="hardAlpha"/>
<feOffset dy="0.554677"/>
<feGaussianBlur stdDeviation="1.06523"/>
<feComposite in2="hardAlpha" operator="out"/>
<feColorMatrix type="matrix" values="0 0 0 0 0.296824 0 0 0 0 0.244184 0 0 0 0 0.404167 0 0 0 0.6 0"/>
<feBlend mode="normal" in2="BackgroundImageFix" result="effect1_dropShadow_1902_1538"/>
<feBlend mode="normal" in="SourceGraphic" in2="effect1_dropShadow_1902_1538" result="shape"/>
</filter>
<filter id="filter10_d_1902_1538" x="2.28916" y="15.9839" width="4.64323" height="4.64347" filterUnits="userSpaceOnUse" color-interpolation-filters="sRGB">
<feFlood flood-opacity="0" result="BackgroundImageFix"/>
<feColorMatrix in="SourceAlpha" type="matrix" values="0 0 0 0 0 0 0 0 0 0 0 0 0 0 0 0 0 0 127 0" result="hardAlpha"/>
<feOffset dy="0.281606"/>
<feGaussianBlur stdDeviation="0.540812"/>
<feComposite in2="hardAlpha" operator="out"/>
<feColorMatrix type="matrix" values="0 0 0 0 0.220722 0 0 0 0 0.210451 0 0 0 0 0.241667 0 0 0 0.6 0"/>
<feBlend mode="normal" in2="BackgroundImageFix" result="effect1_dropShadow_1902_1538"/>
<feBlend mode="normal" in="SourceGraphic" in2="effect1_dropShadow_1902_1538" result="shape"/>
</filter>
<linearGradient id="paint0_linear_1902_1538" x1="3.52263" y1="19.4075" x2="27.3825" y2="19.9085" gradientUnits="userSpaceOnUse">
<stop stop-color="#26A4FF"/>
<stop offset="1" stop-color="#0D9AFF"/>
</linearGradient>
<linearGradient id="paint1_linear_1902_1538" x1="29.1576" y1="22.6479" x2="29.1398" y2="25.7355" gradientUnits="userSpaceOnUse">
<stop stop-color="#3F5FFF"/>
<stop offset="1" stop-color="#3F5FFF" stop-opacity="0"/>
</linearGradient>
<linearGradient id="paint2_linear_1902_1538" x1="29.1576" y1="22.6479" x2="29.1398" y2="25.7355" gradientUnits="userSpaceOnUse">
<stop stop-color="#1DA0FF"/>
<stop offset="1" stop-color="#199FFF" stop-opacity="0.13"/>
</linearGradient>
<linearGradient id="paint3_linear_1902_1538" x1="25.8757" y1="1.68369" x2="26.6134" y2="1.69918" gradientUnits="userSpaceOnUse">
<stop stop-color="#26A4FF"/>
<stop offset="1" stop-color="#0D9AFF"/>
</linearGradient>
<linearGradient id="paint4_linear_1902_1538" x1="32.8848" y1="8.3808" x2="33.196" y2="8.38734" gradientUnits="userSpaceOnUse">
<stop stop-color="#26A4FF"/>
<stop offset="1" stop-color="#0D9AFF"/>
</linearGradient>
<linearGradient id="paint5_linear_1902_1538" x1="6.83546" y1="12.0449" x2="7.64279" y2="12.0619" gradientUnits="userSpaceOnUse">
<stop stop-color="#26A4FF"/>
<stop offset="1" stop-color="#0D9AFF"/>
</linearGradient>
<linearGradient id="paint6_linear_1902_1538" x1="2.65333" y1="23.938" x2="3.46066" y2="23.955" gradientUnits="userSpaceOnUse">
<stop stop-color="#26A4FF"/>
<stop offset="1" stop-color="#0D9AFF"/>
</linearGradient>
<linearGradient id="paint7_linear_1902_1538" x1="26.694" y1="27.2029" x2="27.5014" y2="27.2199" gradientUnits="userSpaceOnUse">
<stop stop-color="#26A4FF"/>
<stop offset="1" stop-color="#0D9AFF"/>
</linearGradient>
<linearGradient id="paint8_linear_1902_1538" x1="7.91351" y1="20.6027" x2="8.22471" y2="20.6093" gradientUnits="userSpaceOnUse">
<stop stop-color="#26A4FF"/>
<stop offset="1" stop-color="#0D9AFF"/>
</linearGradient>
<linearGradient id="paint9_linear_1902_1538" x1="13.826" y1="7.86919" x2="14.315" y2="7.87946" gradientUnits="userSpaceOnUse">
<stop stop-color="#26A4FF"/>
<stop offset="1" stop-color="#0D9AFF"/>
</linearGradient>
<linearGradient id="paint10_linear_1902_1538" x1="27.5122" y1="12.226" x2="24.1033" y2="11.8103" gradientUnits="userSpaceOnUse">
<stop stop-color="#26A4FF"/>
<stop offset="1" stop-color="#0D9AFF"/>
</linearGradient>
<linearGradient id="paint11_linear_1902_1538" x1="5.75625" y1="17.7203" x2="3.30213" y2="18.1434" gradientUnits="userSpaceOnUse">
<stop stop-color="#26A4FF"/>
<stop offset="1" stop-color="#0D9AFF"/>
</linearGradient>
</defs>
</svg>
