<svg width="20" height="20" viewBox="0 0 20 20" fill="none" xmlns="http://www.w3.org/2000/svg">
<g clip-path="url(#clip0_2036_2092)">
<path fill-rule="evenodd" clip-rule="evenodd" d="M10.5893 14.0893C10.433 14.2455 10.2211 14.3333 10.0001 14.3333C9.77915 14.3333 9.56723 14.2455 9.41096 14.0893L4.69679 9.37512C4.6172 9.29825 4.55371 9.2063 4.51004 9.10463C4.46636 9.00296 4.44338 8.89361 4.44241 8.78296C4.44145 8.67231 4.46254 8.56258 4.50444 8.46016C4.54634 8.35775 4.60822 8.2647 4.68646 8.18646C4.7647 8.10822 4.85775 8.04634 4.96016 8.00444C5.06257 7.96254 5.17231 7.94145 5.28296 7.94241C5.39361 7.94338 5.50296 7.96636 5.60463 8.01004C5.7063 8.05371 5.79825 8.1172 5.87512 8.19679L10.0001 12.3218L14.1251 8.19679C14.2823 8.04499 14.4928 7.961 14.7113 7.96289C14.9298 7.96479 15.1388 8.05243 15.2933 8.20694C15.4478 8.36145 15.5355 8.57046 15.5374 8.78896C15.5393 9.00745 15.4553 9.21795 15.3035 9.37512L10.5893 14.0893Z" fill="#7986AC"/>
</g>
<defs>
<clipPath id="clip0_2036_2092">
<rect width="20" height="20" fill="white"/>
</clipPath>
</defs>
</svg>
