<svg width="50" height="50" viewBox="0 0 50 50" fill="none" xmlns="http://www.w3.org/2000/svg">
<path fill-rule="evenodd" clip-rule="evenodd" d="M12.9092 31.5984C12.9092 27.954 21.2004 24.9972 31.4316 24.9972C41.6601 24.9972 49.9513 27.9541 49.9513 31.5984V37.6656C49.9513 41.3099 41.6601 44.2667 31.4316 44.2667C21.2004 44.2667 12.9092 41.3098 12.9092 37.6656C12.9092 35.6432 12.9092 33.6207 12.9092 31.5984Z" fill="#FE9923"/>
<path fill-rule="evenodd" clip-rule="evenodd" d="M31.4316 24.9972C41.6601 24.9972 49.9513 27.9541 49.9513 31.5984C49.9513 35.2454 41.6601 38.1995 31.4316 38.1995C21.2004 38.1995 12.9092 35.2455 12.9092 31.5984C12.9091 27.954 21.2004 24.9972 31.4316 24.9972Z" fill="#FECD3D"/>
<path fill-rule="evenodd" clip-rule="evenodd" d="M31.4315 28.0818C39.5694 28.0818 46.1649 29.6582 46.1649 31.5983C46.1649 33.5412 39.5694 35.1147 31.4315 35.1147C23.2937 35.1147 16.6953 33.5411 16.6953 31.5983C16.6953 29.6582 23.2937 28.0818 31.4315 28.0818Z" fill="#FEA832"/>
<path d="M22.0551 40.5769L23.6372 40.5797V43.6531C23.0947 43.565 22.5692 43.4656 22.0551 43.3577V40.5769ZM44.9433 38.9494V42.179C45.5142 41.9602 46.0425 41.7302 46.5282 41.4887V38.9465L44.9433 38.9494ZM27.7757 44.136C28.2983 44.1757 28.8267 44.2042 29.3606 44.2241V41.2871L27.7757 41.2899V44.136ZM16.3315 41.4887C16.8173 41.7302 17.3456 41.9602 17.9165 42.179V38.9465L16.3315 38.9494V41.4887ZM33.4991 44.2241C34.0359 44.2042 34.5614 44.1729 35.0813 44.136V41.2899L33.4991 41.2871V44.2241ZM39.2227 43.6531C39.7651 43.565 40.2935 43.4656 40.8048 43.3577V40.5797L39.2227 40.5769V43.6531Z" fill="#C85929"/>
<path d="M5.48691 38.9323V40.8979H7.44971V42.301H5.48691V44.2666H4.08379V42.301H2.11816V40.8979H4.08379V38.9323H5.48691Z" fill="#FEA832"/>
<path d="M41.3957 17.4047V19.3702H43.3612V20.7706H41.3957V22.7361H39.9925V20.7706H38.0298V19.3702H39.9925V17.4047H41.3957Z" fill="#FEA832"/>
<path d="M6.42979 5.73328V7.6989H8.39258V9.09919H6.42979V11.0648H5.02656V9.09919H3.06104V7.6989H5.02656V5.73328H6.42979Z" fill="#FEA832"/>
<path fill-rule="evenodd" clip-rule="evenodd" d="M0.388368 28.1671C-1.43517 25.0085 4.26844 18.3023 13.1277 13.1895C21.9871 8.07384 30.6447 6.48888 32.4683 9.64454C33.4795 11.3971 34.4906 13.1468 35.5018 14.8965C37.3254 18.0551 31.6218 24.7613 22.7625 29.8741C13.9032 34.9898 5.2455 36.5775 3.42196 33.419C2.41073 31.6693 1.3996 29.9168 0.388368 28.1671Z" fill="#FE9923"/>
<path fill-rule="evenodd" clip-rule="evenodd" d="M13.1277 13.1895C21.9871 8.07384 30.6447 6.48888 32.4683 9.64454C34.2918 12.8031 28.5882 19.5094 19.7289 24.6222C10.8724 29.7378 2.2119 31.3228 0.388368 28.167C-1.43517 25.0085 4.26844 18.3023 13.1277 13.1895Z" fill="#FECD3D"/>
<path fill-rule="evenodd" clip-rule="evenodd" d="M14.6701 15.8594C21.7172 11.7919 28.219 9.85756 29.1904 11.5391C30.1618 13.2206 25.2336 17.8818 18.1866 21.9522C11.1394 26.0197 4.64048 27.954 3.66909 26.2725C2.6977 24.591 7.6229 19.9297 14.6701 15.8594Z" fill="#FEA832"/>
<path d="M19.4818 28.3318L20.9504 30.874C20.4761 31.124 20.0045 31.3625 19.533 31.5897L18.11 29.1242L19.4818 28.3318ZM7.0293 32.8197L8.29902 35.0181C8.83867 34.9868 9.4125 34.9215 10.0146 34.8249L8.40127 32.0272L7.0293 32.8197ZM12.7982 31.3682L14.19 33.7769C14.6871 33.615 15.1927 33.436 15.7068 33.2429L14.1701 30.5785L12.7982 31.3682ZM23.0664 26.2611L24.535 28.8032C24.9866 28.5193 25.4297 28.2295 25.8614 27.9369L24.4384 25.4742L23.0664 26.2611ZM33.1784 17.7198L31.8064 18.5152L33.4227 21.3102C33.8062 20.8387 34.1498 20.3728 34.448 19.9211L33.1784 17.7198ZM27.668 22.7844L29.2047 25.4488C29.6308 25.1022 30.0369 24.7529 30.4261 24.4034L29.0371 21.9976L27.668 22.7844Z" fill="#C85929"/>
</svg>
