<svg width="64" height="64" viewBox="0 0 64 64" fill="none" xmlns="http://www.w3.org/2000/svg">
<rect x="4" y="4" width="56" height="56" rx="28" fill="#FEF0C7"/>
<rect x="4" y="4" width="56" height="56" rx="28" stroke="#E4EAFF" stroke-width="8"/>
<path fill-rule="evenodd" clip-rule="evenodd" d="M24.7451 35.959C24.7451 33.7724 29.7198 31.9983 35.8586 31.9983C41.9956 31.9983 46.9704 33.7725 46.9704 35.959V39.5993C46.9704 41.7859 41.9956 43.56 35.8586 43.56C29.7198 43.56 24.7451 41.7859 24.7451 39.5993C24.7451 38.3859 24.7451 37.1724 24.7451 35.959Z" fill="#FE9923"/>
<path fill-rule="evenodd" clip-rule="evenodd" d="M35.8586 31.9983C41.9956 31.9983 46.9704 33.7725 46.9704 35.959C46.9704 38.1472 41.9956 39.9197 35.8586 39.9197C29.7198 39.9197 24.7451 38.1473 24.7451 35.959C24.7451 33.7724 29.7198 31.9983 35.8586 31.9983Z" fill="#FECD3D"/>
<path fill-rule="evenodd" clip-rule="evenodd" d="M35.8593 33.8491C40.7421 33.8491 44.6994 34.7949 44.6994 35.959C44.6994 37.1247 40.7421 38.0688 35.8593 38.0688C30.9766 38.0688 27.0176 37.1246 27.0176 35.959C27.0176 34.7949 30.9766 33.8491 35.8593 33.8491Z" fill="#FEA832"/>
<path d="M30.2329 41.3461L31.1822 41.3478V43.1918C30.8567 43.139 30.5414 43.0793 30.2329 43.0146V41.3461ZM43.9659 40.3696V42.3074C44.3084 42.1761 44.6254 42.0381 44.9168 41.8932V40.3679L43.9659 40.3696ZM33.6653 43.4816C33.9789 43.5054 34.2959 43.5225 34.6163 43.5344V41.7722L33.6653 41.7739V43.4816ZM26.7988 41.8932C27.0903 42.0381 27.4073 42.1761 27.7498 42.3074V40.3679L26.7988 40.3696V41.8932ZM37.0994 43.5344C37.4215 43.5225 37.7368 43.5037 38.0487 43.4816V41.7739L37.0994 41.7722V43.5344ZM40.5335 43.1918C40.859 43.139 41.176 43.0793 41.4828 43.0146V41.3478L40.5335 41.3461V43.1918Z" fill="#C85929"/>
<path d="M20.2918 40.3594V41.5388H21.4694V42.3806H20.2918V43.56H19.4499V42.3806H18.2705V41.5388H19.4499V40.3594H20.2918Z" fill="#FEA832"/>
<path d="M41.8379 27.4427V28.6221H43.0172V29.4623H41.8379V30.6416H40.996V29.4623H39.8184V28.6221H40.996V27.4427H41.8379Z" fill="#FEA832"/>
<path d="M20.8582 20.4399V21.6193H22.0358V22.4595H20.8582V23.6389H20.0162V22.4595H18.8369V21.6193H20.0162V20.4399H20.8582Z" fill="#FEA832"/>
<path fill-rule="evenodd" clip-rule="evenodd" d="M17.233 33.9002C16.1389 32.005 19.5611 27.9813 24.8766 24.9136C30.1923 21.8442 35.3868 20.8933 36.481 22.7867C37.0877 23.8382 37.6944 24.888 38.3011 25.9378C39.3952 27.833 35.9731 31.8567 30.6575 34.9244C25.3419 37.9938 20.1473 38.9465 19.0532 37.0513C18.4464 36.0015 17.8398 34.95 17.233 33.9002Z" fill="#FE9923"/>
<path fill-rule="evenodd" clip-rule="evenodd" d="M24.8766 24.9136C30.1923 21.8442 35.3868 20.8933 36.481 22.7867C37.5751 24.6818 34.1529 28.7056 28.8373 31.7732C23.5235 34.8426 18.3271 35.7936 17.233 33.9001C16.1389 32.005 19.5611 27.9813 24.8766 24.9136Z" fill="#FECD3D"/>
<path fill-rule="evenodd" clip-rule="evenodd" d="M25.8018 26.5156C30.0301 24.0751 33.9312 22.9145 34.514 23.9234C35.0969 24.9323 32.14 27.729 27.9117 30.1713C23.6834 32.6118 19.7841 33.7724 19.2013 32.7635C18.6184 31.7545 21.5735 28.9578 25.8018 26.5156Z" fill="#FEA832"/>
<path d="M28.6893 33.999L29.5704 35.5244C29.2858 35.6744 29.0029 35.8175 28.72 35.9538L27.8662 34.4745L28.6893 33.999ZM21.2178 36.6918L21.9796 38.0108C22.3034 37.9921 22.6477 37.9529 23.009 37.8949L22.041 36.2163L21.2178 36.6918ZM24.6791 35.8209L25.5142 37.2661C25.8125 37.169 26.1158 37.0616 26.4243 36.9457L25.5023 35.3471L24.6791 35.8209ZM30.84 32.7566L31.7212 34.2819C31.9922 34.1115 32.258 33.9377 32.5171 33.7622L31.6632 32.2845L30.84 32.7566ZM36.9072 27.6319L36.0841 28.1091L37.0538 29.7861C37.2839 29.5032 37.4901 29.2237 37.669 28.9527L36.9072 27.6319ZM33.601 30.6706L34.523 32.2692C34.7787 32.0613 35.0223 31.8517 35.2558 31.6421L34.4225 30.1985L33.601 30.6706Z" fill="#C85929"/>
</svg>
