<svg width="50" height="50" viewBox="0 0 50 50" fill="none" xmlns="http://www.w3.org/2000/svg">
<path d="M39.2959 42.9224L7.1262 39.357C5.57948 39.1856 4.46466 37.7928 4.63604 36.2461L7.59285 9.5675C7.76431 8.02078 9.15711 6.90588 10.7037 7.07734L42.8734 10.6427C44.4201 10.8142 45.535 12.207 45.3636 13.7536L42.4068 40.4323C42.2354 41.979 40.8426 43.0939 39.2959 42.9224Z" fill="url(#paint0_linear_1763_2906)"/>
<path d="M45.3639 13.7537L44.1981 24.2753L41.6069 10.5024L42.8743 10.6428C44.4205 10.8139 45.5351 12.2066 45.3639 13.7537Z" fill="url(#paint1_linear_1763_2906)"/>
<path d="M43.9068 37.9666L12.0981 43.9506C10.5687 44.2383 9.0957 43.2317 8.80799 41.7024L3.84547 15.3231C3.55776 13.7938 4.56432 12.3208 6.09365 12.033L37.9024 6.04908C39.4317 5.76138 40.9047 6.76793 41.1924 8.29727L46.155 34.6765C46.4427 36.206 45.4361 37.679 43.9068 37.9666Z" fill="url(#paint2_linear_1763_2906)"/>
<path d="M41.8711 11.9072V38.3495L43.9063 37.9666C45.4357 37.6789 46.4422 36.2059 46.1545 34.6765L41.8711 11.9072Z" fill="url(#paint3_linear_1763_2906)"/>
<path d="M8.65674 40.8975L8.80816 41.7024C9.09586 43.2317 10.5689 44.2383 12.0982 43.9506L28.3275 40.8975H8.65674Z" fill="url(#paint4_linear_1763_2906)"/>
<path d="M39.0534 41.062H6.68684C5.13064 41.062 3.86914 39.8005 3.86914 38.2443V11.4023C3.86914 9.8461 5.13064 8.58459 6.68684 8.58459H39.0534C40.6096 8.58459 41.8711 9.8461 41.8711 11.4023V38.2443C41.8711 39.8005 40.6096 41.062 39.0534 41.062Z" fill="url(#paint5_linear_1763_2906)"/>
<path d="M36.4146 38.4143H9.32508C8.02266 38.4143 6.9668 37.3584 6.9668 36.056V13.5903C6.9668 12.2879 8.02266 11.2321 9.32508 11.2321H36.4146C37.717 11.2321 38.7728 12.2879 38.7728 13.5903V36.056C38.7728 37.3584 37.717 38.4143 36.4146 38.4143Z" fill="url(#paint6_linear_1763_2906)"/>
<path d="M24.7561 38.4145H9.32582C8.02316 38.4145 6.9668 37.3589 6.9668 36.0563V32.3735L10.8818 27.6149C12.1738 26.0431 14.5787 26.0431 15.8716 27.6149L18.3093 30.5784L24.7561 38.4145Z" fill="url(#paint7_linear_1763_2906)"/>
<path d="M38.773 30.1344V36.0563C38.773 37.3589 37.7167 38.4144 36.414 38.4144H11.8618L18.3088 30.5784L26.2287 20.9508C27.5207 19.3799 29.9265 19.3799 31.2186 20.9508L38.773 30.1344Z" fill="url(#paint8_linear_1763_2906)"/>
<path d="M15.2061 20.2715C17.0531 20.2715 18.5504 18.7742 18.5504 16.9272C18.5504 15.0802 17.0531 13.5829 15.2061 13.5829C13.3591 13.5829 11.8618 15.0802 11.8618 16.9272C11.8618 18.7742 13.3591 20.2715 15.2061 20.2715Z" fill="url(#paint9_linear_1763_2906)"/>
<defs>
<linearGradient id="paint0_linear_1763_2906" x1="14.6318" y1="12.0424" x2="38.5485" y2="41.9112" gradientUnits="userSpaceOnUse">
<stop stop-color="#FFA936"/>
<stop offset="0.4112" stop-color="#FF8548"/>
<stop offset="0.7781" stop-color="#FF6C54"/>
<stop offset="1" stop-color="#FF6359"/>
</linearGradient>
<linearGradient id="paint1_linear_1763_2906" x1="44.5815" y1="17.0185" x2="42.5811" y2="17.4598" gradientUnits="userSpaceOnUse">
<stop stop-color="#F82814" stop-opacity="0"/>
<stop offset="1" stop-color="#C0272D"/>
</linearGradient>
<linearGradient id="paint2_linear_1763_2906" x1="11.2996" y1="15.6388" x2="42.8999" y2="37.2288" gradientUnits="userSpaceOnUse">
<stop stop-color="#CDEC7A"/>
<stop offset="0.2157" stop-color="#B0E995"/>
<stop offset="0.5613" stop-color="#87E4BB"/>
<stop offset="0.8347" stop-color="#6EE1D2"/>
<stop offset="1" stop-color="#65E0DB"/>
</linearGradient>
<linearGradient id="paint3_linear_1763_2906" x1="44.6805" y1="25.1284" x2="41.2675" y2="25.1284" gradientUnits="userSpaceOnUse">
<stop stop-color="#CDEC7A" stop-opacity="0"/>
<stop offset="0.2354" stop-color="#9AD57D" stop-opacity="0.235"/>
<stop offset="0.6035" stop-color="#51B482" stop-opacity="0.604"/>
<stop offset="0.8679" stop-color="#239F85" stop-opacity="0.868"/>
<stop offset="1" stop-color="#119786"/>
</linearGradient>
<linearGradient id="paint4_linear_1763_2906" x1="18.4921" y1="42.6212" x2="18.4921" y2="40.5993" gradientUnits="userSpaceOnUse">
<stop stop-color="#CDEC7A" stop-opacity="0"/>
<stop offset="0.2354" stop-color="#9AD57D" stop-opacity="0.235"/>
<stop offset="0.6035" stop-color="#51B482" stop-opacity="0.604"/>
<stop offset="0.8679" stop-color="#239F85" stop-opacity="0.868"/>
<stop offset="1" stop-color="#119786"/>
</linearGradient>
<linearGradient id="paint5_linear_1763_2906" x1="11.1354" y1="13.0885" x2="38.1905" y2="40.1436" gradientUnits="userSpaceOnUse">
<stop stop-color="#F8F6FB"/>
<stop offset="1" stop-color="#EFDCFB"/>
</linearGradient>
<linearGradient id="paint6_linear_1763_2906" x1="13.1726" y1="12.2071" x2="39.5605" y2="46.5378" gradientUnits="userSpaceOnUse">
<stop stop-color="#18CEFB"/>
<stop offset="0.2969" stop-color="#2BB9F9"/>
<stop offset="0.7345" stop-color="#42A0F7"/>
<stop offset="1" stop-color="#4A97F6"/>
</linearGradient>
<linearGradient id="paint7_linear_1763_2906" x1="10.0813" y1="30.1162" x2="21.6418" y2="45.1564" gradientUnits="userSpaceOnUse">
<stop stop-color="#CDEC7A"/>
<stop offset="0.2154" stop-color="#B0E995" stop-opacity="0.784"/>
<stop offset="0.5604" stop-color="#87E4BB" stop-opacity="0.439"/>
<stop offset="0.8334" stop-color="#6EE1D2" stop-opacity="0.165"/>
<stop offset="0.9985" stop-color="#65E0DB" stop-opacity="0"/>
</linearGradient>
<linearGradient id="paint8_linear_1763_2906" x1="20.3281" y1="27.7832" x2="34.2708" y2="45.9227" gradientUnits="userSpaceOnUse">
<stop stop-color="#CDEC7A"/>
<stop offset="0.2157" stop-color="#B0E995"/>
<stop offset="0.5613" stop-color="#87E4BB"/>
<stop offset="0.8347" stop-color="#6EE1D2"/>
<stop offset="1" stop-color="#65E0DB"/>
</linearGradient>
<linearGradient id="paint9_linear_1763_2906" x1="13.5445" y1="14.7655" x2="18.066" y2="20.648" gradientUnits="userSpaceOnUse">
<stop stop-color="#FFD945"/>
<stop offset="0.3043" stop-color="#FFCD3E"/>
<stop offset="0.8558" stop-color="#FFAD2B"/>
<stop offset="1" stop-color="#FFA325"/>
</linearGradient>
</defs>
</svg>
